<?xml version="1.0" encoding="utf-8"?>
<!-- Generator: Adobe Illustrator 25.1.0, SVG Export Plug-In . SVG Version: 6.00 Build 0)  -->
<svg version="1.1" id="Layer_1" xmlns="http://www.w3.org/2000/svg" xmlns:xlink="http://www.w3.org/1999/xlink" x="0px" y="0px"
	 viewBox="0 0 6679 6899" style="enable-background:new 0 0 6679 6899;" xml:space="preserve">
<style type="text/css">
	.st0{fill:#FFFFFF;}
	.st1{fill:#FDD917;}
</style>
<g>
	<g>
		<path class="st0" d="M5599.54,3145.42c-9.92,579.35-237.88,1105.48-605.36,1500.06l-149.62,146.58l-1.87,1.77L3306.5,6298
			L1800.75,4760.05l-0.88-0.79l-145.01-148.15c-357.27-399.58-574.44-927.09-574.44-1505.36
			c0-1236.74,993.56-2241.49,2226.08-2259.46v862l0,0c-794.06,0-1404.14,643.75-1404.14,1437.81s643.75,1437.81,1437.81,1437.81
			s1437.81-643.75,1437.81-1437.81v-0.69H5599.54z"/>
		<polygon class="st1" points="5577.54,846 5577.54,2570.59 4717.8,2570.59 4717.8,1705.74 3863.07,1705.74 3863.07,846 		"/>
	</g>
	<circle class="st0" cx="3339.98" cy="3110.77" r="892.16"/>
</g>
</svg>
